<svg id="Layer_1" data-name="Layer 1" xmlns="http://www.w3.org/2000/svg" viewBox="0 0 671.14 212.59"><polygon points="9.1 170.81 263.13 170.81 263.13 128.36 18.23 128.36 9.1 170.81" style="fill:#fad000"/><polygon points="18.06 129.14 263.13 129.14 263.13 86.68 27.18 86.68 18.06 129.14" style="fill:#ff9d00"/><polygon points="27.08 87.15 263.13 87.15 263.13 44.7 36.21 44.7 27.08 87.15" style="fill:#f5628d"/><polygon points="227.13 212.59 227.13 170.14 9.12 170.14 0 212.59 227.13 212.59" style="fill:#8fffff"/><g style="isolation:isolate"><path d="M457.06,71.4,394.67,215.5H322.45L316,69.37,284.14,218.56H221.07L270.24,6h94.6l5.42,146.48L433.33,6.64h95.95L494.7,218.56H431Z" transform="translate(-27.86 -5.96)" style="fill:#8fffff"/></g><g style="isolation:isolate"><path d="M536.93,6.64H699L688.83,60.21H592.54l-6.11,30.52H665.1l-10.18,52.89H576.26l-14.58,74.94H495.9Z" transform="translate(-27.86 -5.96)" style="fill:#8fffff"/></g></svg>