<svg id="Layer_1" data-name="Layer 1" xmlns="http://www.w3.org/2000/svg" viewBox="0 0 693 212.88"><g style="isolation:isolate"><path d="M457.06,70.4,394.67,214.5H322.45L316,68.37,284.14,217.56H221.07L270.24,5h94.6l5.42,146.48L433.33,5.64h95.95L494.7,217.56H431Z" transform="translate(-6 -4.96)" style="fill:#8fffff"/></g><g style="isolation:isolate"><path d="M536.93,5.64H699L688.83,59.21H592.54l-6.11,30.52H665.1l-10.18,52.89H576.26l-14.58,74.94H495.9Z" transform="translate(-6 -4.96)" style="fill:#8fffff"/></g><polygon points="254.11 44.88 0.08 44.88 0.08 87.34 244.98 87.34 254.11 44.88" style="fill:#fad000"/><polygon points="245.15 86.56 0.08 86.56 0.08 129.02 236.03 129.02 245.15 86.56" style="fill:#ff9d00"/><polygon points="236.13 128.55 0.08 128.55 0.08 171 227 171 236.13 128.55" style="fill:#f5628d"/><polygon points="0 170.42 0 212.88 218.01 212.88 227.13 170.42 0 170.42" style="fill:#8fffff"/></svg>